<svg aria-hidden="true" style="position:absolute;width:0;height:0;overflow:hidden" xmlns="http://www.w3.org/2000/svg"><defs><symbol id="gamepad" viewBox="0 0 32 32"><path fill="#00b2ae" style="fill:var(--color1, #00b2ae)" d="M27.84 13.28H5.92c-.56 0-1 .44-1 1v9.96c0 .56.44 1 1 1h7.12l.36-1.48c0-.56.44-1 1-1h5.48c.56 0 1 .44 1 1l.36 1.48h6.6c.56 0 1-.44 1-1v-9.96c0-.52-.44-1-1-1z"/><path fill="#231c1c" style="fill:var(--color2, #231c1c)" d="M27.84 25.68h-6.6a.39.39 0 0 1-.4-.32l-.36-1.48v-.08c0-.32-.28-.6-.6-.6H14.4c-.32 0-.6.28-.6.6v.08l-.36 1.48a.43.43 0 0 1-.4.32H5.92c-.76 0-1.4-.64-1.4-1.4v-10c0-.76.64-1.4 1.4-1.4h21.96c.76 0 1.4.64 1.4 1.4v9.96c-.04.8-.64 1.44-1.44 1.44zm-6.28-.8h6.28c.32 0 .6-.28.6-.6v-10c0-.32-.28-.6-.6-.6H5.92c-.32 0-.6.28-.6.6v9.96c0 .32.28.6.6.6h6.8l.28-1.16c.04-.76.64-1.36 1.4-1.36h5.48c.76 0 1.36.6 1.4 1.36l.28 1.2z"/><path fill="#231c1c" style="fill:var(--color2, #231c1c)" d="M16.8 13.2H16V9.72c0-.24.16-.4.4-.4H19v-3.6h.8v4c0 .24-.16.4-.4.4h-2.6v3.08z"/><path fill="#d4594c" style="fill:var(--color3, #d4594c)" d="M20.4 17.28a1.48 1.48 0 0 0 2.96 0 1.48 1.48 0 0 0-2.96 0z"/><path fill="#231c1c" style="fill:var(--color2, #231c1c)" d="M21.88 19.2c-1.04 0-1.88-.84-1.88-1.88s.84-1.88 1.88-1.88 1.88.84 1.88 1.88c0 1-.84 1.88-1.88 1.88zm0-3c-.6 0-1.08.48-1.08 1.08s.48 1.08 1.08 1.08 1.08-.48 1.08-1.08-.48-1.08-1.08-1.08z"/><path fill="#b8ca43" style="fill:var(--color4, #b8ca43)" d="M23.88 20.28a1.48 1.48 0 0 0 2.96 0 1.48 1.48 0 0 0-2.96 0z"/><path fill="#231c1c" style="fill:var(--color2, #231c1c)" d="M25.36 22.16c-1.04 0-1.88-.84-1.88-1.88s.84-1.88 1.88-1.88 1.88.84 1.88 1.88-.84 1.88-1.88 1.88zm0-2.96c-.6 0-1.08.48-1.08 1.08s.48 1.08 1.08 1.08 1.08-.48 1.08-1.08-.48-1.08-1.08-1.08z"/><path fill="#fac546" style="fill:var(--color5, #fac546)" d="M11.88 17.8H10.4v-1.52h-2v1.52H6.92v2H8.4v1.48h2V19.8h1.48z"/><path fill="#231c1c" style="fill:var(--color2, #231c1c)" d="M10.4 21.68h-2c-.24 0-.4-.16-.4-.4V20.2H6.92c-.24 0-.4-.16-.4-.4v-2c0-.24.16-.4.4-.4H8v-1.08c0-.24.16-.4.4-.4h2c.24 0 .4.16.4.4v1.08h1.08c.24 0 .4.16.4.4v2c0 .24-.16.4-.4.4H10.8v1.08c0 .2-.2.4-.4.4zm-1.6-.8H10V19.8c0-.24.16-.4.4-.4h1.08v-1.2H10.4c-.24 0-.4-.16-.4-.4v-1.08H8.8v1.08c0 .24-.16.4-.4.4H7.32v1.2H8.4c.24 0 .4.16.4.4v1.08z"/></symbol><symbol id="zoo-monkey" viewBox="0 0 32 32"><path d="M.25 1.234v29.531h31.5V1.234H.25zm16.242 1.477h6.398v12.843l-1.567 1.828s-2.573-.508-4.832-.96V2.711zM9.109 15.636c.601.274 1.195.513 1.393.587a3.26 3.26 0 0 0-1.393 2.145v-2.732zm-.984 12.673a1.576 1.576 0 0 0-.566-.106h-.302l-.161-1.522 1.029-.653v2.28zm0-14.441a6.458 6.458 0 0 1-.281-.201c-1.34-1.024-2.023-2.328-2.03-3.876a2.528 2.528 0 0 1 2.311-2.498v6.575zm0-7.66c-1.642.101-3.039 1.357-3.342 2.991-.337 1.818.565 4.373 3.314 5.934l.028.015v8.822l-2.153 1.386a.72.72 0 0 0-.321.723l.524 3.207-4.448.004V2.712h6.398v3.497zm.984 19.196 2.575-1.633a12.232 12.232 0 0 1-2.015-1.81l-.094.875a.45.45 0 0 1-.205.332l-.261.168v-3.842c.07.41.214.794.429 1.132.987 1.552 3.035 2.886 3.035 2.886l.003.002-1.713 4.689 1.086 1.086h-2.84v-3.885zm6.399 3.885h-1.036c-.223-.633-.831-1.086-1.503-1.086h-.483l2.507-4.345a.72.72 0 0 0 .014-.696l-1.148-2.186s.579.649 1.648 1.224v7.089zm0-13.065a133.907 133.907 0 0 1-2.206-.457c-1.641-.372-3.052-.78-4.193-1.335V7.404a2.53 2.53 0 0 1 1.754 2.404.54.54 0 1 0 1.082 0 3.613 3.613 0 0 0-2.836-3.523V2.712h6.399v13.513zm.984 6.416c.497.18 1.058.322 1.681.389l-1.178 5.174.724 1.086h-1.227v-6.648zm7.383 6.649v-.838l.698.838h-.698zm6.398 0h-3.9a1.986 1.986 0 0 0-1.13-.983l-.313-.102-1.172-4.058-.255-1.769a7.967 7.967 0 0 1-1.808.942l.169.828 1.026 2.308v2.836h-3.375a2.302 2.302 0 0 0-1.093-1.053l-.075-.033 1.623-4.058 1.349-1.46a7.357 7.357 0 0 0 3.955-3.276l1.149-.459a.72.72 0 0 0 .416-.442l.205-.616a.18.18 0 0 0-.091-.218l-.581-.291v-.541l.361-.541-2.633-1.17a.886.886 0 0 0-.227-.064V2.714h6.398v26.578z"/></symbol><symbol id="retry" viewBox="0 0 32 32"><path d="M32 12H20l4.485-4.485C22.218 5.249 19.205 4 16 4S9.781 5.248 7.515 7.515C5.249 9.782 4 12.795 4 16s1.248 6.219 3.515 8.485C9.782 26.751 12.795 28 16 28s6.219-1.248 8.485-3.515c.189-.189.371-.384.546-.583l3.01 2.634A15.96 15.96 0 0 1 16 32C7.163 32 0 24.837 0 16S7.163 0 16 0c4.418 0 8.418 1.791 11.313 4.687L32 0v12z"/></symbol></defs></svg>