<svg xmlns="http://www.w3.org/2000/svg" viewBox="0 0 512 512" xml:space="preserve"><path style="fill:#e7282f" d="M457.948 460.606v14.646c0 20.325-16.424 36.748-36.681 36.748H90.732c-3.9 0-7.733-.615-11.223-1.779-11.223-3.558-20.119-12.455-23.678-23.678a36.452 36.452 0 0 1-1.779-11.291v-14.646a36.576 36.576 0 0 1 19.572-32.438c5.133-2.805 10.95-4.31 17.109-4.31h330.536c6.159 0 11.976 1.505 17.109 4.31a36.576 36.576 0 0 1 19.57 32.438z"/><path style="fill:#80655f" d="M140.552 164.767c0 .822-.068 1.574-.274 2.327-1.232 7.254-5.612 13.892-12.524 17.724L94.7 206.032l-13.413 8.623L61.1 227.658c-13.755 7.596-31.069 2.669-38.734-11.018-7.664-13.755-2.669-31.069 11.018-38.734l58.922-31.205.411-.205 10.607-5.612c12.113-6.706 27.442-2.395 34.217 9.786a24.675 24.675 0 0 1 3.011 14.097zm243.683 20.083c-12.136-6.755-16.498-22.066-9.746-34.201 6.754-12.134 22.066-16.498 34.2-9.744l69.913 37.01c13.73 7.643 18.668 24.97 11.027 38.702-7.643 13.732-24.971 18.668-38.7 11.027l-66.694-42.794z"/><path style="fill:#90816d" d="M73.624 392.036h364.753v44.072H73.624z"/><path style="fill:#f9d584" d="M73.624 336.947h364.753v74.662H73.624zm-.014 94.264h364.778v31.826H73.61z"/><path style="fill:#e7282f" d="M493.466 317.375c0 35.175-23.131 52.01-55.089 57.074-7.323 1.163-15.124 1.711-23.268 1.711H106.267c-11.086 0-22.173-1.027-32.643-3.217-30.453-6.569-55.089-23.405-55.089-55.568 0-43.251 29.358-73.429 58.716-78.356l4.037-24.363 11.223-66.86.206-1.3 4.174-24.979h318.217l2.943 17.45 1.232 7.528 11.429 68.16 4.037 24.363c29.358 4.927 58.717 35.106 58.717 78.357z"/><circle style="fill:#fff" cx="150.971" cy="253.234" r="42.105"/><path style="fill:#80655f" d="M191.96 230.315c13.607 2.782 26.891-5.992 29.673-19.597s-5.99-26.889-19.595-29.673l-77.153-17.469c-15.396-3.148-30.429 6.78-33.577 22.176-3.148 15.396 6.778 30.429 22.176 33.577l78.476 10.986z"/><circle style="fill:#fff" cx="361.029" cy="253.234" r="42.105"/><circle style="fill:#3b2f2c" cx="150.971" cy="253.234" r="16.841"/><circle style="fill:#3b2f2c" cx="361.028" cy="253.234" r="16.842"/><path style="fill:#80655f" d="M320.04 230.315c-13.607 2.782-26.891-5.992-29.676-19.597-2.782-13.605 5.992-26.889 19.597-29.673l77.151-17.469c15.398-3.148 30.431 6.78 33.579 22.176 3.15 15.396-6.778 30.429-22.176 33.577l-78.475 10.986zm4.058 51.988c-3.938 0-7.778.424-11.479 1.225-4.517-27.191-28.147-47.921-56.618-47.921-28.474 0-52.104 20.73-56.62 47.921a54.195 54.195 0 0 0-11.479-1.225c-29.819 0-53.993 24.172-53.993 53.993 0 29.819 24.174 53.991 53.993 53.991 25.694 0 42.578-10.695 68.099-10.695 25.519 0 42.405 10.695 68.097 10.695 29.821 0 53.992-24.172 53.992-53.991 0-29.821-24.171-53.993-53.992-53.993z"/><circle style="fill:#cd2939" cx="200.11" cy="346.764" r="19.842"/><circle style="fill:#cd2939" cx="306.883" cy="346.764" r="19.842"/><path style="fill:#64524d" d="M474.099 103.656c0 12.729-37.502 13.961-50.709 24.704-2.669 2.19-4.243 6.022-5.338 10.607-.548 1.916-.958 3.97-1.3 6.16-1.574 8.28-2.737 17.519-6.706 23.678-1.779 2.737-4.106 4.859-7.185 6.022-7.323 2.806-18.614-2.806-30.043-8.007-.41-.137-.821-.343-1.232-.547-9.375-4.106-18.683-7.802-26.005-6.228-6.912 1.437-12.66 9.171-18.477 17.108-6.707 9.102-13.618 18.614-22.583 19.504-3.696.342-7.528-1.027-11.429-3.285-12.523-7.391-26.142-24.225-38.733-24.225-11.839 0-24.499 14.85-36.407 22.72-4.722 3.148-9.375 5.201-13.755 4.79-9.238-.89-16.219-10.949-23.199-20.325-5.612-7.665-11.155-14.85-17.861-16.287-6.433-1.368-14.371 1.3-22.583 4.722-1.163.548-2.327 1.095-3.559 1.574-11.839 5.338-23.61 11.361-31.137 8.487a14.336 14.336 0 0 1-5.885-4.311c-4.585-5.475-6.022-14.372-7.46-22.721-.068-.342-.137-.753-.205-1.094-1.369-7.802-2.874-14.988-6.98-18.341-13.208-10.744-50.709-11.976-50.709-24.704 0-15.535 37.502-20.119 47.151-31.412 9.239-10.811-.205-41.744 16.151-48.93 13.755-6.091 42.292 16.834 60.016 13.139C173.403 33.238 184.216 1.485 201.94.048c16.151-1.369 34.902 27.784 52.421 27.784 17.245 0 36.201-28.947 52.146-27.305 17.451 1.779 27.1 33.738 42.361 37.297 17.177 4.037 45.645-18.067 59.401-12.386.137.069.206.069.342.136 3.49 1.575 5.817 4.243 7.391 7.596.069.069.069.069.069.137 5.748 12.181 1.984 33.054 9.444 40.855 10.945 11.427 48.584 15.054 48.584 29.494z"/><path style="opacity:.06;fill:#171716" d="M438.376 392.036v-17.587c31.958-5.064 55.089-21.899 55.089-57.074 0-43.251-29.358-73.429-58.716-78.356l-4.034-24.344 20.214 12.97c13.729 7.641 31.057 2.704 38.7-11.027 7.641-13.731 2.703-31.058-11.027-38.702l-59.315-31.4-.003-.02-1.232-7.528c1.095-4.584 2.669-8.417 5.338-10.607 13.208-10.744 50.709-11.976 50.709-24.704 0-14.439-37.639-18.067-48.588-29.495-7.46-7.801-3.696-28.673-9.444-40.855 0-.069 0-.069-.069-.137-1.574-3.353-3.901-6.021-7.391-7.596-.137-.068-.205-.068-.342-.136-13.755-5.681-42.224 16.423-59.401 12.386-15.261-3.559-24.91-35.518-42.361-37.297-15.441-1.592-33.702 25.428-50.503 27.14V512h165.268c20.256 0 36.681-16.423 36.681-36.748v-14.646a36.576 36.576 0 0 0-19.572-32.438v-36.132z"/></svg>