<svg height="800" width="800" xmlns="http://www.w3.org/2000/svg" viewBox="0 0 512 512" xml:space="preserve"><path style="fill:#e7c9c8" d="M512 101.925c0-44.644-36.197-80.833-80.853-80.833-15.722 0-30.355 4.561-42.771 12.331C358.389 3.098 313.303 0 253.072 0 194.346 0 150.05 3.006 120.069 31.267a80.42 80.42 0 0 0-39.223-10.175C36.195 21.092 0 57.281 0 101.925c0 37.977 26.216 69.746 61.514 78.422 2.063 11.614 6.891 24.728 15.821 39.9 21.816 37.07 44.518 62.099 49.205 69.127v.184c-2.865 7.102-4.693 12.594-4.693 15.061 0 10.904 2.051 27.875 21.223 30.177-.064.87-.132 1.739-.132 2.627 0 19.414 15.735 35.148 35.146 35.148h161.68c19.409 0 35.155-15.734 35.155-35.148a34.5 34.5 0 0 0-.184-3.582c14.84-4.31 16.58-19.273 16.58-29.222 0-3.129-2.94-11.131-7.225-21.147 8.78-11.051 27.049-33.183 44.73-63.225 8.608-14.633 13.396-27.349 15.576-38.651C482.735 175.259 512 142.051 512 101.925z"/><path style="fill:#e8d1d2" d="M178.085 302.274c-19.411 0-35.146 15.741-35.146 35.149 0 19.414 15.735 35.148 35.146 35.148h74.987v-70.297h-74.987z"/><path style="fill:#e7c9c8" d="M339.764 302.274h-86.693v70.297h86.693c19.409 0 35.155-15.734 35.155-35.148 0-19.408-15.746-35.149-35.155-35.149z"/><path style="fill:#fadfdc" d="M161.68 101.925c0 44.651-36.193 80.846-80.833 80.846C36.195 182.771 0 146.576 0 101.925c0-44.644 36.195-80.833 80.847-80.833 44.64 0 80.833 36.189 80.833 80.833z"/><path style="fill:#efcdcc" d="M128.876 103.101c0 23.29-18.881 42.177-42.177 42.177s-42.177-18.887-42.177-42.177c0-23.289 18.881-42.177 42.177-42.177 23.295 0 42.177 18.888 42.177 42.177z"/><path style="fill:#f2d7d6" d="M350.319 101.925c0 44.651 36.183 80.846 80.828 80.846 44.656 0 80.853-36.195 80.853-80.846 0-44.644-36.197-80.833-80.853-80.833-44.644 0-80.828 36.189-80.828 80.833z"/><path style="fill:#e4c3c3" d="M383.123 103.101c0 23.29 18.882 42.177 42.171 42.177 23.302 0 42.183-18.887 42.183-42.177 0-23.289-18.881-42.177-42.183-42.177-23.289 0-42.171 18.888-42.171 42.177z"/><path style="fill:#fadfdc" d="m149.974 226.1-63.275-57.386 79.667-117.145 86.706-41.02v281.189H126.541V226.1l11.709 2.345"/><path style="fill:#604c3f" d="M253.072 91.389c-112.477-23.437-131.224 35.148-124.196 77.325 5.198 31.206 33.977 44.516 33.977 44.516l-36.312 76.144c-4.686-7.029-27.389-32.057-49.205-69.127-23.44-39.82-18.757-65.595-9.374-86.681 8.617-19.39 17.788-47.32 30.453-72.642C126.525 4.702 178.097 0 253.072 0v91.389z"/><path style="fill:#f2d7d6" d="m356.172 226.1 63.282-57.386-79.677-117.145-86.705-41.02v281.189h126.537V226.1l-11.706 2.345"/><path style="fill:#564236" d="M253.072 91.389c112.48-23.437 131.227 35.148 124.199 77.325-5.192 31.206-33.967 44.516-33.967 44.516l36.306 76.144c4.689-7.029 27.391-32.057 49.212-69.127 23.437-39.82 18.747-65.595 9.367-86.681-8.62-19.39-17.791-47.32-30.453-72.642C379.621 4.702 328.058 0 253.072 0v91.389z"/><path style="fill:#fad9d7" d="M162.852 213.23s-41.005 79.665-41.005 91.389c0 11.718 2.342 30.459 25.775 30.459h114.816v-138.25c-21.084 0-79.688-11.712-99.586 16.402z"/><path style="fill:#fad9d7" d="M350.319 213.23s40.996 79.665 40.996 91.389c0 11.718-2.34 30.459-25.776 30.459H250.72v-138.25c21.098 0 79.689-11.712 99.599 16.402z"/><path style="fill:#564236" d="M192.13 143.968h-19.004l6.146 8.333a13.954 13.954 0 0 0-1.249 5.755c0 7.788 6.306 14.106 14.106 14.106 7.775 0 14.093-6.318 14.093-14.106.001-7.776-6.317-14.088-14.092-14.088zm146.741 0h-19.004c-7.775 0-14.093 6.312-14.093 14.087 0 7.788 6.318 14.106 14.093 14.106 7.8 0 14.106-6.318 14.106-14.106 0-2.051-.453-3.985-1.249-5.755l6.147-8.332z"/><path style="fill:#baa089" d="M236.223 244.852c-4.677 0-15.232-14.057-23.424-11.712-8.204 2.351 2.338 16.408 12.882 16.408 10.542 0 10.542-4.696 10.542-4.696zm39.55 0c4.678 0 15.233-14.057 23.424-11.712 8.204 2.351-2.339 16.408-12.882 16.408-10.542 0-10.542-4.696-10.542-4.696z"/></svg>