<svg aria-hidden="true" style="position: absolute; width: 0; height: 0; overflow: hidden;" version="1.1" xmlns="http://www.w3.org/2000/svg" xmlns:xlink="http://www.w3.org/1999/xlink">
<defs>
<symbol id="gamepad" viewBox="0 0 32 32">
<path fill="#00b2ae" style="fill: var(--color1, #00b2ae)" d="M27.84 13.28h-21.92c-0.56 0-1 0.44-1 1v9.96c0 0.56 0.44 1 1 1h7.12l0.36-1.48c0-0.56 0.44-1 1-1h5.48c0.56 0 1 0.44 1 1l0.36 1.48h6.6c0.56 0 1-0.44 1-1v-9.96c0-0.52-0.44-1-1-1z"></path>
<path fill="#231c1c" style="fill: var(--color2, #231c1c)" d="M27.84 25.68h-6.6c-0.2 0-0.36-0.12-0.4-0.32l-0.36-1.48v-0.080c0-0.32-0.28-0.6-0.6-0.6h-5.48c-0.32 0-0.6 0.28-0.6 0.6v0.080l-0.36 1.48c-0.040 0.16-0.2 0.32-0.4 0.32h-7.12c-0.76 0-1.4-0.64-1.4-1.4v-10c0-0.76 0.64-1.4 1.4-1.4h21.96c0.76 0 1.4 0.64 1.4 1.4v9.96c-0.040 0.8-0.64 1.44-1.44 1.44zM21.56 24.88h6.28c0.32 0 0.6-0.28 0.6-0.6v-10c0-0.32-0.28-0.6-0.6-0.6h-21.92c-0.32 0-0.6 0.28-0.6 0.6v9.96c0 0.32 0.28 0.6 0.6 0.6h6.8l0.28-1.16c0.040-0.76 0.64-1.36 1.4-1.36h5.48c0.76 0 1.36 0.6 1.4 1.36l0.28 1.2z"></path>
<path fill="#231c1c" style="fill: var(--color2, #231c1c)" d="M16.8 13.2h-0.8v-3.48c0-0.24 0.16-0.4 0.4-0.4h2.6v-3.6h0.8v4c0 0.24-0.16 0.4-0.4 0.4h-2.6v3.080z"></path>
<path fill="#d4594c" style="fill: var(--color3, #d4594c)" d="M20.4 17.28c0 0.817 0.663 1.48 1.48 1.48s1.48-0.663 1.48-1.48v0c0-0.817-0.663-1.48-1.48-1.48s-1.48 0.663-1.48 1.48v0z"></path>
<path fill="#231c1c" style="fill: var(--color2, #231c1c)" d="M21.88 19.2c-1.040 0-1.88-0.84-1.88-1.88s0.84-1.88 1.88-1.88 1.88 0.84 1.88 1.88c0 1-0.84 1.88-1.88 1.88zM21.88 16.2c-0.6 0-1.080 0.48-1.080 1.080s0.48 1.080 1.080 1.080 1.080-0.48 1.080-1.080-0.48-1.080-1.080-1.080z"></path>
<path fill="#b8ca43" style="fill: var(--color4, #b8ca43)" d="M23.88 20.28c0 0.817 0.663 1.48 1.48 1.48s1.48-0.663 1.48-1.48v0c0-0.817-0.663-1.48-1.48-1.48s-1.48 0.663-1.48 1.48v0z"></path>
<path fill="#231c1c" style="fill: var(--color2, #231c1c)" d="M25.36 22.16c-1.040 0-1.88-0.84-1.88-1.88s0.84-1.88 1.88-1.88 1.88 0.84 1.88 1.88-0.84 1.88-1.88 1.88zM25.36 19.2c-0.6 0-1.080 0.48-1.080 1.080s0.48 1.080 1.080 1.080 1.080-0.48 1.080-1.080-0.48-1.080-1.080-1.080z"></path>
<path fill="#fac546" style="fill: var(--color5, #fac546)" d="M11.88 17.8h-1.48v-1.52h-2v1.52h-1.48v2h1.48v1.48h2v-1.48h1.48z"></path>
<path fill="#231c1c" style="fill: var(--color2, #231c1c)" d="M10.4 21.68h-2c-0.24 0-0.4-0.16-0.4-0.4v-1.080h-1.080c-0.24 0-0.4-0.16-0.4-0.4v-2c0-0.24 0.16-0.4 0.4-0.4h1.080v-1.080c0-0.24 0.16-0.4 0.4-0.4h2c0.24 0 0.4 0.16 0.4 0.4v1.080h1.080c0.24 0 0.4 0.16 0.4 0.4v2c0 0.24-0.16 0.4-0.4 0.4h-1.080v1.080c0 0.2-0.2 0.4-0.4 0.4zM8.8 20.88h1.2v-1.080c0-0.24 0.16-0.4 0.4-0.4h1.080v-1.2h-1.080c-0.24 0-0.4-0.16-0.4-0.4v-1.080h-1.2v1.080c0 0.24-0.16 0.4-0.4 0.4h-1.080v1.2h1.080c0.24 0 0.4 0.16 0.4 0.4v1.080z"></path>
</symbol>
<symbol id="zoo-monkey" viewBox="0 0 32 32">
<path d="M0.25 1.234v29.531h31.5v-29.531h-31.5zM16.492 2.711h6.398v12.843l-1.567 1.828c0 0-2.573-0.508-4.832-0.96v-13.711zM9.109 15.636c0.601 0.274 1.195 0.513 1.393 0.587-0.722 0.486-1.238 1.253-1.393 2.145v-2.732zM8.125 28.309c-0.177-0.068-0.368-0.106-0.566-0.106h-0.302l-0.161-1.522 1.029-0.653v2.28zM8.125 13.868c-0.096-0.065-0.19-0.132-0.281-0.201-1.34-1.024-2.023-2.328-2.030-3.876 0.009-1.313 1.024-2.389 2.311-2.498v6.575zM8.125 6.208c-1.642 0.101-3.039 1.357-3.342 2.991-0.337 1.818 0.565 4.373 3.314 5.934 0.009 0.005 0.019 0.010 0.028 0.015v8.822l-2.153 1.386c-0.241 0.155-0.368 0.439-0.321 0.723l0.524 3.207-4.448 0.004v-26.578h6.398v3.497zM9.109 25.404l2.575-1.633c-0.755-0.543-1.442-1.161-2.015-1.81l-0.094 0.875c-0.014 0.136-0.090 0.258-0.205 0.332l-0.261 0.168v-3.842c0.070 0.41 0.214 0.794 0.429 1.132 0.987 1.552 3.035 2.886 3.035 2.886 0.001 0.001 0.002 0.002 0.003 0.002l-1.713 4.689 1.086 1.086h-2.84v-3.885zM15.508 29.289h-1.036c-0.223-0.633-0.831-1.086-1.503-1.086h-0.483l2.507-4.345c0.124-0.214 0.129-0.477 0.014-0.696l-1.148-2.186c0 0 0.579 0.649 1.648 1.224v7.089zM15.508 16.224c-1.027-0.207-1.875-0.382-2.206-0.457-1.641-0.372-3.052-0.78-4.193-1.335v-7.028c1.016 0.327 1.754 1.28 1.754 2.404 0 0.299 0.242 0.541 0.541 0.541s0.541-0.242 0.541-0.541c-0-1.724-1.217-3.169-2.836-3.523v-3.573h6.399v13.513zM16.492 22.64c0.497 0.18 1.058 0.322 1.681 0.389l-1.178 5.174 0.724 1.086h-1.227v-6.648zM23.875 29.289v-0.838l0.698 0.838h-0.698zM30.273 29.289h-3.9c-0.232-0.456-0.645-0.825-1.13-0.983l-0.313-0.102-1.172-4.058-0.255-1.769c-0.556 0.387-1.162 0.705-1.808 0.942l0.169 0.828 1.026 2.308v2.836h-3.375c-0.234-0.458-0.623-0.844-1.093-1.053l-0.075-0.033 1.623-4.058 1.349-1.46c1.696-0.587 3.104-1.787 3.955-3.276l1.149-0.459c0.197-0.079 0.349-0.24 0.416-0.442l0.205-0.616c0.028-0.085-0.011-0.178-0.091-0.218l-0.581-0.291v-0.541l0.361-0.541-2.633-1.17c-0.074-0.033-0.15-0.052-0.227-0.064v-12.355h6.398v26.578z"></path>
</symbol>
<symbol id="retry" viewBox="0 0 32 32">
<path d="M32 12h-12l4.485-4.485c-2.267-2.266-5.28-3.515-8.485-3.515s-6.219 1.248-8.485 3.515c-2.266 2.267-3.515 5.28-3.515 8.485s1.248 6.219 3.515 8.485c2.267 2.266 5.28 3.515 8.485 3.515s6.219-1.248 8.485-3.515c0.189-0.189 0.371-0.384 0.546-0.583l3.010 2.634c-2.933 3.349-7.239 5.464-12.041 5.464-8.837 0-16-7.163-16-16s7.163-16 16-16c4.418 0 8.418 1.791 11.313 4.687l4.687-4.687v12z"></path>
</symbol>
</defs>
</svg>
